<mxfile host="app.diagrams.net" modified="2024-01-16T18:24:40.306Z" agent="Mozilla/5.0 (Windows NT 10.0; Win64; x64) AppleWebKit/537.36 (KHTML, like Gecko) Chrome/120.0.0.0 Safari/537.36" etag="8jtdKftGihaRxRjRESDx" version="22.1.18" type="device">
  <diagram id="JJoEpRGihAE5Xga6SS9n" name="Page-1">
    <mxGraphModel dx="882" dy="578" grid="1" gridSize="10" guides="1" tooltips="1" connect="1" arrows="1" fold="1" page="1" pageScale="1" pageWidth="850" pageHeight="1100" math="0" shadow="0">
      <root>
        <mxCell id="0" />
        <mxCell id="1" parent="0" />
        <mxCell id="ILRUplVYN4U2CUsUEdED-4" style="edgeStyle=orthogonalEdgeStyle;rounded=0;orthogonalLoop=1;jettySize=auto;html=1;exitX=0.5;exitY=0;exitDx=0;exitDy=0;entryX=0;entryY=0.5;entryDx=0;entryDy=0;" edge="1" parent="1" source="ILRUplVYN4U2CUsUEdED-1" target="ILRUplVYN4U2CUsUEdED-2">
          <mxGeometry relative="1" as="geometry" />
        </mxCell>
        <mxCell id="ILRUplVYN4U2CUsUEdED-6" style="edgeStyle=orthogonalEdgeStyle;rounded=0;orthogonalLoop=1;jettySize=auto;html=1;exitX=0.5;exitY=1;exitDx=0;exitDy=0;entryX=0;entryY=0.5;entryDx=0;entryDy=0;" edge="1" parent="1" source="ILRUplVYN4U2CUsUEdED-1" target="ILRUplVYN4U2CUsUEdED-3">
          <mxGeometry relative="1" as="geometry" />
        </mxCell>
        <mxCell id="ILRUplVYN4U2CUsUEdED-1" value="Client" style="rounded=1;whiteSpace=wrap;html=1;" vertex="1" parent="1">
          <mxGeometry x="80" y="200" width="120" height="60" as="geometry" />
        </mxCell>
        <mxCell id="ILRUplVYN4U2CUsUEdED-7" style="edgeStyle=orthogonalEdgeStyle;rounded=0;orthogonalLoop=1;jettySize=auto;html=1;exitX=0.5;exitY=1;exitDx=0;exitDy=0;entryX=1;entryY=0.5;entryDx=0;entryDy=0;" edge="1" parent="1" source="ILRUplVYN4U2CUsUEdED-2" target="ILRUplVYN4U2CUsUEdED-1">
          <mxGeometry relative="1" as="geometry" />
        </mxCell>
        <mxCell id="ILRUplVYN4U2CUsUEdED-2" value="TinyURL server" style="rounded=1;whiteSpace=wrap;html=1;" vertex="1" parent="1">
          <mxGeometry x="320" y="80" width="120" height="60" as="geometry" />
        </mxCell>
        <mxCell id="ILRUplVYN4U2CUsUEdED-3" value="Website" style="rounded=1;whiteSpace=wrap;html=1;" vertex="1" parent="1">
          <mxGeometry x="320" y="320" width="120" height="60" as="geometry" />
        </mxCell>
        <mxCell id="ILRUplVYN4U2CUsUEdED-8" value="visit short URL" style="text;html=1;strokeColor=none;fillColor=none;align=center;verticalAlign=middle;whiteSpace=wrap;rounded=0;" vertex="1" parent="1">
          <mxGeometry x="160" y="80" width="120" height="30" as="geometry" />
        </mxCell>
        <mxCell id="ILRUplVYN4U2CUsUEdED-9" value="status code: 301, location: long URL" style="text;html=1;strokeColor=none;fillColor=none;align=center;verticalAlign=middle;whiteSpace=wrap;rounded=0;" vertex="1" parent="1">
          <mxGeometry x="220" y="200" width="140" height="30" as="geometry" />
        </mxCell>
        <mxCell id="ILRUplVYN4U2CUsUEdED-10" value="visit long URL" style="text;html=1;strokeColor=none;fillColor=none;align=center;verticalAlign=middle;whiteSpace=wrap;rounded=0;" vertex="1" parent="1">
          <mxGeometry x="160" y="320" width="120" height="30" as="geometry" />
        </mxCell>
      </root>
    </mxGraphModel>
  </diagram>
</mxfile>
